<svg xmlns="http://www.w3.org/2000/svg" viewBox="0 0 68.86 68.86"><defs><style>.cls-1{fill:#8ea7bd;}.cls-2{fill:#fff;}</style></defs><title>icon-email-rounded</title><g id="Layer_2" data-name="Layer 2"><g id="Layer_1-2" data-name="Layer 1"><circle id="_Path_" data-name="&lt;Path&gt;" class="cls-1" cx="34.43" cy="34.43" r="34.43"/><g id="_Group_" data-name="&lt;Group&gt;"><path id="_Path_2" data-name="&lt;Path&gt;" class="cls-2" d="M51.4,23.44a4.67,4.67,0,0,0-3-1.1H21.1a4.67,4.67,0,0,0-3,1.1L31.56,35.59a5.16,5.16,0,0,0,6.37,0Z"/><path id="_Path_3" data-name="&lt;Path&gt;" class="cls-2" d="M50.28,27.49,39,37.62l-1.34,1.2a4.82,4.82,0,0,1-5.94,0l-1.33-1.2L19.21,27.49a4.36,4.36,0,0,0-1.56,3.35V42.15A4.37,4.37,0,0,0,22,46.53H47.46a4.37,4.37,0,0,0,4.37-4.37V30.84A4.36,4.36,0,0,0,50.28,27.49Z"/></g></g></g></svg>