<svg xmlns="http://www.w3.org/2000/svg" viewBox="0 0 142.22 167.1"><defs><style>.cls-1{fill:#84b783;}</style></defs><title>icon-doc</title><g id="Layer_2" data-name="Layer 2"><g id="Layer_1-2" data-name="Layer 1"><g id="_Group_" data-name="&lt;Group&gt;"><path id="_Compound_Path_" data-name="&lt;Compound Path&gt;" class="cls-1" d="M142.22,84.34q0,32.57,0,65.14c0,10.58-6.44,17.5-17,17.53q-54.48.19-109,0C6.9,167,.06,160,0,150.65Q0,83.13,0,15.62C.06,6.46,7.44,0,17.81,0Q55.52,0,93.22,0H124c11.8,0,18.2,6.47,18.2,18.39Q142.22,51.37,142.22,84.34ZM8.73,83.08q0,32.77,0,65.53c0,6.51,2.56,9.36,8.45,9.36q53.69,0,107.38,0c6.37,0,8.93-2.59,8.93-8.84q0-65.33,0-130.67c0-6.81-2.56-9.37-9.24-9.37q-52.9,0-105.8,0c-7.39,0-9.73,2.35-9.73,9.64Q8.72,50.91,8.73,83.08Z"/><path id="_Path_" data-name="&lt;Path&gt;" class="cls-1" d="M69.28,79H108.7c1.05,0,2.39-.37,3.09.13,1.55,1.12,3.51,2.49,4,4.12.67,2.44-1.19,4.15-3.69,4.67a17.43,17.43,0,0,1-3.53.18H30.48c-5.27,0-7.75-1.45-7.84-4.56C22.54,80.27,24.7,79,30.25,79Z"/><path id="_Path_2" data-name="&lt;Path&gt;" class="cls-1" d="M69.25,112.68c-13.55,0-27.1,0-40.65,0-2.73,0-5.14-.44-5.66-3.58-.45-2.71.64-4.64,3.6-5.05A17.44,17.44,0,0,1,28.9,104q40.45,0,80.91,0c2.49,0,4.78.15,5.76,3,1.12,3.27-1.05,5.7-5.27,5.71Q89.78,112.71,69.25,112.68Z"/><path id="_Path_3" data-name="&lt;Path&gt;" class="cls-1" d="M69.29,137.35c-13.55,0-27.1,0-40.65,0-3,0-5.69-.29-5.77-4.16-.07-3.05,1.9-4.55,6-4.55q40.45,0,80.9,0c4.65,0,7.52,3,5.62,6a7,7,0,0,1-5.09,2.56C96.65,137.44,83,137.35,69.29,137.35Z"/><path id="_Path_4" data-name="&lt;Path&gt;" class="cls-1" d="M95.22,48.6c-5,0-10,0-14.95,0-3.06,0-5.58-.83-5.86-4.36-.23-2.86,2.14-4.73,6-4.75q14.75-.08,29.5,0c4,0,6.23,1.75,6,4.63-.28,3.76-2.89,4.54-6.13,4.49C104.92,48.55,100.07,48.6,95.22,48.6Z"/></g></g></g></svg>