<svg id="Layer_1" data-name="Layer 1" xmlns="http://www.w3.org/2000/svg" viewBox="0 0 442.66 114.95"><defs><style>.cls-1{fill:#fff;}</style></defs><title>logoUntitled-1</title><g id="_Group_" data-name="&lt;Group&gt;"><g id="_Group_2" data-name="&lt;Group&gt;"><path id="_Compound_Path_" data-name="&lt;Compound Path&gt;" class="cls-1" d="M631,402.71H607.75l-4.86,14H592.06l22.64-59.94H624l22.68,59.94H635.86Zm-20.3-8.4H628l-8.69-24.87Z" transform="translate(-461.99 -327.21)"/><path id="_Compound_Path_2" data-name="&lt;Compound Path&gt;" class="cls-1" d="M663.2,416.67h-10V353.43h10Z" transform="translate(-461.99 -327.21)"/><path id="_Compound_Path_3" data-name="&lt;Compound Path&gt;" class="cls-1" d="M684.73,416.67h-10V353.43h10Z" transform="translate(-461.99 -327.21)"/><path id="_Compound_Path_4" data-name="&lt;Compound Path&gt;" class="cls-1" d="M695.64,360.51a5.37,5.37,0,0,1,1.46-3.86,5.5,5.5,0,0,1,4.18-1.54,5.57,5.57,0,0,1,4.2,1.54,5.33,5.33,0,0,1,1.48,3.86,5.21,5.21,0,0,1-1.48,3.8,5.61,5.61,0,0,1-4.2,1.51,5.54,5.54,0,0,1-4.18-1.51A5.25,5.25,0,0,1,695.64,360.51Zm10.62,56.15h-10V372.12h10Z" transform="translate(-461.99 -327.21)"/><path id="_Compound_Path_5" data-name="&lt;Compound Path&gt;" class="cls-1" d="M726.43,372.12l.29,5.15a16,16,0,0,1,13-6q13.91,0,14.16,15.93v29.44h-10V387.81q0-4.24-1.83-6.28t-6-2a9.64,9.64,0,0,0-9,5.48v31.7H717V372.12Z" transform="translate(-461.99 -327.21)"/><path id="_Compound_Path_6" data-name="&lt;Compound Path&gt;" class="cls-1" d="M798.56,402.71H775.34l-4.86,14H759.66l22.64-59.94h9.35l22.68,59.94H803.46Zm-20.3-8.4h17.37L787,369.45Z" transform="translate(-461.99 -327.21)"/><path id="_Compound_Path_7" data-name="&lt;Compound Path&gt;" class="cls-1" d="M857.18,394.85q0,10.33-4.69,16.49a15,15,0,0,1-12.6,6.15q-7.33,0-11.73-4.82v21.12h-10V372.12h9.22l.41,4.53a14.69,14.69,0,0,1,12-5.35,15.18,15.18,0,0,1,12.78,6.07q4.63,6.07,4.63,16.86Zm-10-.86q0-6.67-2.65-10.58a8.63,8.63,0,0,0-7.6-3.91q-6.13,0-8.81,5.06v19.76q2.72,5.19,8.89,5.19a8.62,8.62,0,0,0,7.47-3.85Q847.22,401.81,847.22,394Z" transform="translate(-461.99 -327.21)"/><path id="_Compound_Path_8" data-name="&lt;Compound Path&gt;" class="cls-1" d="M904.65,394.85q0,10.33-4.69,16.49a15,15,0,0,1-12.6,6.15q-7.33,0-11.73-4.82v21.12h-10V372.12h9.22l.41,4.53a14.69,14.69,0,0,1,12-5.35A15.18,15.18,0,0,1,900,377.37q4.63,6.07,4.63,16.86Zm-10-.86q0-6.67-2.65-10.58a8.63,8.63,0,0,0-7.6-3.91q-6.13,0-8.81,5.06v19.76q2.72,5.19,8.89,5.19a8.62,8.62,0,0,0,7.47-3.85Q894.69,401.81,894.69,394Z" transform="translate(-461.99 -327.21)"/></g><g id="_Group_3" data-name="&lt;Group&gt;"><g id="_Group_4" data-name="&lt;Group&gt;"><path class="cls-1" d="M519.47,329A31.45,31.45,0,1,1,488,360.47,31.49,31.49,0,0,1,519.47,329m0-1.8a33.26,33.26,0,1,0,33.26,33.26,33.26,33.26,0,0,0-33.26-33.26Z" transform="translate(-461.99 -327.21)"/></g><g id="_Group_5" data-name="&lt;Group&gt;"><path class="cls-1" d="M519.47,377.45A31.45,31.45,0,1,1,488,408.91a31.49,31.49,0,0,1,31.45-31.45m0-1.8a33.26,33.26,0,1,0,33.26,33.26,33.26,33.26,0,0,0-33.26-33.26Z" transform="translate(-461.99 -327.21)"/></g><g id="_Group_6" data-name="&lt;Group&gt;"><path class="cls-1" d="M495.25,355a31.45,31.45,0,1,1-31.45,31.45A31.49,31.49,0,0,1,495.25,355m0-1.8a33.26,33.26,0,1,0,33.26,33.26,33.26,33.26,0,0,0-33.26-33.26Z" transform="translate(-461.99 -327.21)"/></g><g id="_Group_7" data-name="&lt;Group&gt;"><path class="cls-1" d="M543.69,355a31.45,31.45,0,1,1-31.45,31.45A31.49,31.49,0,0,1,543.69,355m0-1.8a33.26,33.26,0,1,0,33.26,33.26,33.26,33.26,0,0,0-33.26-33.26Z" transform="translate(-461.99 -327.21)"/></g><circle id="_Path_" data-name="&lt;Path&gt;" class="cls-1" cx="57.68" cy="59.3" r="21.79"/></g></g></svg>