<svg xmlns="http://www.w3.org/2000/svg" viewBox="0 0 331.77 331.77"><defs><style>.cls-1{fill:#e7967b;}.cls-2{fill:#84b783;}.cls-3{fill:#8ea7bd;}.cls-4{fill:#fab900;}.cls-5{fill:#3fa397;}</style></defs><title>logotipo</title><g id="Layer_2" data-name="Layer 2"><g id="Layer_1-2" data-name="Layer 1"><g id="_Group_" data-name="&lt;Group&gt;"><g id="_Group_2" data-name="&lt;Group&gt;"><path class="cls-1" d="M165.89,5.2A90.78,90.78,0,1,1,75.1,96,90.89,90.89,0,0,1,165.89,5.2m0-5.2a96,96,0,1,0,96,96,96,96,0,0,0-96-96Z"/></g><g id="_Group_3" data-name="&lt;Group&gt;"><path class="cls-2" d="M165.89,145A90.78,90.78,0,1,1,75.1,235.79,90.89,90.89,0,0,1,165.89,145m0-5.2a96,96,0,1,0,96,96,96,96,0,0,0-96-96Z"/></g><g id="_Group_4" data-name="&lt;Group&gt;"><path class="cls-3" d="M96,80.09A90.78,90.78,0,1,1,5.2,170.87,90.89,90.89,0,0,1,96,80.09m0-5.2a96,96,0,1,0,96,96,96,96,0,0,0-96-96Z"/></g><g id="_Group_5" data-name="&lt;Group&gt;"><path class="cls-4" d="M235.79,80.09A90.78,90.78,0,1,1,145,170.87a90.89,90.89,0,0,1,90.78-90.78m0-5.2a96,96,0,1,0,96,96,96,96,0,0,0-96-96Z"/></g><circle id="_Path_" data-name="&lt;Path&gt;" class="cls-5" cx="166.48" cy="171.17" r="62.88"/></g></g></g></svg>